<?xml version="1.0" encoding="UTF-8"?>
<svg width="27px" height="27px" viewBox="0 0 27 27" version="1.1" xmlns="http://www.w3.org/2000/svg" xmlns:xlink="http://www.w3.org/1999/xlink">
    <!-- Generator: sketchtool 41.1 (35376) - http://www.bohemiancoding.com/sketch -->
    <title>04A4F892-FEE7-4B55-BAE8-0A4770E4B780</title>
    <desc>Created with sketchtool.</desc>
    <defs></defs>
    <g id="Web" stroke="none" stroke-width="1" fill="none" fill-rule="evenodd" opacity="0.5">
        <g id="Participant-Detail-Level-Copy" transform="translate(-771.000000, -222.000000)">
            <g id="tabs" transform="translate(224.000000, 214.000000)">
                <g id="Group-7" transform="translate(537.000000, 0.000000)">
                    <g id="Oval-173-Copy-+-UNHCR-100" transform="translate(10.000000, 8.000000)">
                        <g id="Circles_Adventurous-Journey">
                            <path d="M26.9821268,13.4923944 C26.9821268,20.9341268 20.949338,26.9667254 13.5076056,26.9667254 C6.0656831,26.9667254 0.033084507,20.9341268 0.033084507,13.4923944 C0.033084507,6.05047183 6.0656831,0.0178732394 13.5076056,0.0178732394 C20.949338,0.0178732394 26.9821268,6.05047183 26.9821268,13.4923944" id="Fill-1" fill="#71A100"></path>
                            <path d="M12.9940352,4.8474507 C12.9892817,4.57783099 12.9847183,4.19678873 12.9615211,3.93192254 C13.0219859,4.13176056 13.2218239,4.58733803 13.3982746,4.99157746 L13.9513944,6.2276831 L14.6298169,6.2276831 L14.6298169,2.9979507 L14.0118592,2.9979507 L14.0257394,4.31771831 C14.030493,4.54075352 14.0536901,4.9545 14.0768873,5.20529577 C14.0118592,4.97294366 13.8863662,4.63373239 13.7236056,4.28995775 L13.1056479,2.9979507 L12.3852042,2.9979507 L12.3852042,6.2276831 L13.012669,6.2276831 L12.9940352,4.8474507" id="Fill-2" fill="#FFFFFF"></path>
                            <path d="M16.9858521,16.2728239 L15.879993,14.7005493 C15.3384718,13.9310493 14.2656972,12.8584648 13.4956268,12.3161831 L11.9912324,11.2578592 C12.4492817,11.0631549 12.9525845,10.9547746 13.4807958,10.9547746 C15.5845141,10.9547746 17.2957817,12.6660423 17.2957817,14.7693803 C17.2957817,15.3031056 17.1847394,15.8109718 16.9858521,16.2728239 L16.9858521,16.2728239 Z M12.8577042,14.1297465 C13.1917817,13.7954789 13.7333028,13.7954789 14.0675704,14.1297465 C14.401838,14.4630634 14.401838,15.0051549 14.0675704,15.3394225 C13.7333028,15.6731197 13.1917817,15.6731197 12.8577042,15.3394225 C12.5234366,15.0051549 12.5234366,14.4630634 12.8577042,14.1297465 L12.8577042,14.1297465 Z M13.4807958,18.5839859 C11.3772676,18.5839859 9.666,16.8727183 9.666,14.7693803 C9.666,14.2318521 9.77894366,13.7203732 9.9806831,13.2560493 L11.0447113,14.7674789 C11.5868028,15.5373592 12.6597676,16.6099437 13.4292676,17.1520352 L15.0074366,18.2634085 C14.5395,18.4685704 14.0236479,18.5839859 13.4807958,18.5839859 L13.4807958,18.5839859 Z M21.4073873,14.6708873 L18.3881408,14.1116831 C18.093993,11.9012958 16.3464085,10.1540915 14.1354507,9.86146479 L13.578338,6.9650493 C13.5452535,6.82510563 13.4136761,6.79107042 13.3828732,6.9650493 L12.826331,9.86146479 C12.1439155,9.95178169 11.5069437,10.1809014 10.9416549,10.5193521 L6.61671127,7.47614789 C5.84702113,6.93500704 5.6606831,7.12096479 6.20277465,7.89084507 L9.24350704,12.2093239 C8.89630986,12.7825986 8.66224648,13.4304085 8.57173944,14.1248028 L5.62816901,14.6708873 C5.44848592,14.7197535 5.44183099,14.8087394 5.62816901,14.8659718 L8.57173944,15.414338 C8.86075352,17.6325211 10.6142324,19.387331 12.8326056,19.6782465 L13.3828732,22.6412113 C13.4279366,22.7847676 13.5463944,22.7779225 13.578338,22.6412113 L14.1291761,19.6782465 C14.8271831,19.5865986 15.4778451,19.3502535 16.0532113,18.9992535 L20.3060915,21.9939718 C21.0755915,22.5362535 21.2619296,22.3499155 20.7205986,21.5800352 L17.7235986,17.3210704 C18.065662,16.7531197 18.2968732,16.1129155 18.3881408,15.4272676 L21.4073873,14.8659718 C21.5806056,14.8431549 21.5450493,14.7034014 21.4073873,14.6708873 L21.4073873,14.6708873 Z" id="Fill-3" fill="#FFFFFF"></path>
                        </g>
                    </g>
                </g>
            </g>
        </g>
    </g>
</svg>