<?xml version="1.0" encoding="UTF-8"?>
<svg width="27px" height="27px" viewBox="0 0 27 27" version="1.1" xmlns="http://www.w3.org/2000/svg" xmlns:xlink="http://www.w3.org/1999/xlink">
    <!-- Generator: sketchtool 41.1 (35376) - http://www.bohemiancoding.com/sketch -->
    <title>10A6E62A-54A7-43E2-B482-07A1BE4B98C9</title>
    <desc>Created with sketchtool.</desc>
    <defs></defs>
    <g id="Web" stroke="none" stroke-width="1" fill="none" fill-rule="evenodd">
        <g id="Participant-Detail-Level-Copy" transform="translate(-407.000000, -222.000000)">
            <g id="tabs" transform="translate(224.000000, 214.000000)">
                <g id="Group-7" transform="translate(173.000000, 0.000000)">
                    <g id="Oval-164-Copy-+-Football-Filled-100-Copy" transform="translate(10.000000, 8.000000)">
                        <g id="Circles_Physical-Recreation">
                            <path d="M26.9821268,13.4923944 C26.9821268,20.9343169 20.949338,26.9669155 13.5074155,26.9669155 C6.06549296,26.9669155 0.033084507,20.9343169 0.033084507,13.4923944 C0.033084507,6.05047183 6.06549296,0.0178732394 13.5074155,0.0178732394 C20.949338,0.0178732394 26.9821268,6.05047183 26.9821268,13.4923944" id="Fill-1" fill="#E0C216"></path>
                            <path d="M22.8564507,10.9848169 C22.7834366,10.5123169 22.3419296,10.1886972 21.8688592,10.261331 L18.8380141,10.7290775 C18.2590352,10.5195423 16.6257254,9.92782394 16.160831,9.75916901 C15.5963028,9.32830986 12.9238732,7.28638732 12.7620634,7.16298592 C12.5648873,7.00535915 12.5540493,7.00440845 11.6807324,6.92797183 L8.31257746,6.63325352 L8.3034507,6.63230282 C8.08326761,6.61538028 8.08326761,6.61538028 7.41169014,6.91694366 L4.87102817,8.05816901 C4.43484507,8.25401408 4.24033099,8.76644366 4.43598592,9.20262676 C4.63202113,9.63842958 5.1444507,9.83351408 5.5806338,9.63766901 C5.5806338,9.63766901 7.71002113,8.68088028 8.38597183,8.37760563 C9.33819718,8.46088732 10.7209014,8.5818169 11.5183521,8.65178873 L8.34319014,12.7517958 C8.12091549,12.974831 8.00816197,13.2997817 8.07052817,13.6329085 L8.87862676,17.9479648 L6.28130282,21.0136056 C5.92821127,21.4303944 5.97973944,22.0546268 6.39690845,22.4079085 C6.58267606,22.5655352 6.80970423,22.6425423 7.03578169,22.6425423 C7.31661972,22.6425423 7.59555634,22.5237042 7.79140141,22.292493 L10.5328521,19.0564859 C10.8146408,18.7239296 10.9448873,18.2320352 10.8646479,17.8030775 L10.3263592,14.9275775 L10.6885775,14.941838 C10.7387746,15.015993 10.7990493,15.0852042 10.8709225,15.145669 L13.8276127,17.6357535 L13.5749155,21.6787183 C13.5406901,22.2240423 13.9553873,22.6938803 14.5007113,22.7277254 C14.5216268,22.7290563 14.5423521,22.7298169 14.5632676,22.7298169 C15.0814014,22.7298169 15.5168239,22.3265282 15.5497183,21.8021197 L15.818007,17.5087394 C15.846338,17.0563944 15.6406056,16.5759085 15.2939789,16.2842324 L12.8350775,14.212838 L15.1814155,11.2586197 L17.9861831,12.261993 C18.4811197,12.4412958 18.6147887,12.4897817 18.7362887,12.4897817 C18.781162,12.4897817 18.8245141,12.4829366 18.8836479,12.474 L22.1327746,11.9724085 C22.6054648,11.8993944 22.9292746,11.4573169 22.8564507,10.9848169" id="Fill-2" fill="#FFFFFF"></path>
                            <path d="M15.7619155,8.34642254 C16.7500775,8.34642254 17.5509507,7.5455493 17.5509507,6.55738732 C17.5509507,5.56960563 16.7500775,4.76873239 15.7619155,4.76873239 C14.7741338,4.76873239 13.9732606,5.56960563 13.9732606,6.55738732 C13.9732606,7.5455493 14.7741338,8.34642254 15.7619155,8.34642254" id="Fill-3" fill="#FFFFFF"></path>
                            <path d="M19.3397958,22.7298169 C20.3275775,22.7298169 21.1284507,21.9289437 21.1284507,20.9409718 C21.1284507,19.9531901 20.3275775,19.1523169 19.3397958,19.1523169 C18.3518239,19.1523169 17.5509507,19.9531901 17.5509507,20.9409718 C17.5509507,21.9289437 18.3518239,22.7298169 19.3397958,22.7298169" id="Fill-4" fill="#FFFFFF"></path>
                        </g>
                    </g>
                </g>
            </g>
        </g>
    </g>
</svg>