<?xml version="1.0" encoding="UTF-8"?>
<svg width="27px" height="27px" viewBox="0 0 27 27" version="1.1" xmlns="http://www.w3.org/2000/svg" xmlns:xlink="http://www.w3.org/1999/xlink">
    <!-- Generator: sketchtool 41.1 (35376) - http://www.bohemiancoding.com/sketch -->
    <title>CEFE4B99-91E8-4C92-B494-07E374E8E14C</title>
    <desc>Created with sketchtool.</desc>
    <defs>
        <polygon id="path-1" points="0.0114084507 27 26.9490423 27 26.9490423 0.0511478873 0.0114084507 0.0511478873"></polygon>
    </defs>
    <g id="Web" stroke="none" stroke-width="1" fill="none" fill-rule="evenodd" opacity="0.5">
        <g id="Participant-Detail-Level-Copy" transform="translate(-594.000000, -222.000000)">
            <g id="tabs" transform="translate(224.000000, 214.000000)">
                <g id="Group-7" transform="translate(360.000000, 0.000000)">
                    <g id="Oval-173-Copy-+-UNHCR-100" transform="translate(10.000000, 8.000000)">
                        <g id="Circles_Service">
                            <g id="Group-3">
                                <mask id="mask-2" fill="white">
                                    <use xlink:href="#path-1"></use>
                                </mask>
                                <g id="Clip-2"></g>
                                <path d="M26.9490423,13.5254789 C26.9490423,20.9674014 20.9162535,27 13.4745211,27 C6.03278873,27 0,20.9674014 0,13.5254789 C0,6.08374648 6.03278873,0.0511478873 13.4745211,0.0511478873 C20.9162535,0.0511478873 26.9490423,6.08374648 26.9490423,13.5254789" id="Fill-1" fill="#E40046" mask="url(#mask-2)"></path>
                            </g>
                            <path d="M19.8902535,15.8299859 L18.6083239,14.8197676 C17.1560282,13.6751197 15.6541056,12.4920634 14.1801338,11.3242183 C14.0645282,11.2325704 13.9584296,11.1897887 13.847007,11.1897887 C13.772662,11.1897887 13.6928028,11.2086127 13.6034366,11.2474014 L13.4399155,11.3183239 C12.5515775,11.7035493 11.6328169,12.1022746 10.7159577,12.4616408 C10.4856972,12.5517676 10.2141761,12.599493 9.9308662,12.599493 C9.88180986,12.599493 9.8331338,12.5979718 9.78559859,12.5953099 C9.21555634,12.5607042 8.69380986,12.1142535 8.57173944,11.5563803 C8.44244366,10.9673239 8.86721831,10.6556831 9.20852113,10.4056479 C9.55210563,10.1535211 9.89854225,9.90424648 10.2449789,9.65554225 C10.4845563,9.48308451 10.7245141,9.31062676 10.9637113,9.13702817 C11.0542183,9.07123944 11.1433944,8.99974648 11.2373239,8.92426056 C11.2673662,8.89973239 11.2985493,8.87482394 11.330493,8.84934507 C11.2154577,8.78735915 11.0981408,8.7573169 10.9732183,8.7573169 C10.8340352,8.7573169 10.6999859,8.79420423 10.5870423,8.83052113 L9.95691549,9.03226056 C9.36747887,9.22069014 8.75807746,9.41539437 8.16122535,9.61428169 C8.01158451,9.66409859 7.87601408,9.68843662 7.74766901,9.68843662 C7.59859859,9.68843662 7.45751408,9.65630282 7.3160493,9.59051408 C7.13959859,9.50875352 6.95326056,9.43954225 6.7728169,9.37261268 C6.67394366,9.33591549 6.57526056,9.29940845 6.47752817,9.26061972 C6.41364085,9.23514085 6.35640845,9.22221127 6.30849296,9.22221127 C6.20752817,9.22221127 6.13622535,9.27792254 6.0843169,9.39790141 C6.06891549,9.43364789 6.04933099,9.46673239 6.0303169,9.49829577 C6.02157042,9.5133169 6.0126338,9.52814789 6.00445775,9.54297887 L5.50267606,10.446338 C4.91190845,11.5101761 4.32133099,12.5738239 3.72561972,13.6450775 C3.62978873,13.8173451 3.58377465,13.9194507 3.75166901,14.0164225 C4.34110563,14.3565845 4.93073239,14.6956056 5.53157746,15.0409014 L6.14364085,15.392662 C6.39957042,14.9150282 6.72528169,14.6921831 7.16526761,14.6921831 L7.20101408,14.6927535 C7.65069718,14.7051127 7.98116197,14.9355634 8.18404225,15.377831 C8.51602817,15.1236127 8.7926831,15.0049648 9.05146479,15.0049648 C9.4001831,15.0049648 9.71885915,15.2300915 10.0516056,15.7115282 C10.3364366,15.4919155 10.6089085,15.3806831 10.8629366,15.3806831 C11.2165986,15.3806831 11.5436408,15.5955423 11.8356972,16.0193662 C11.9775423,16.2247183 12.1174859,16.3125634 12.3042042,16.3125634 C12.337669,16.3125634 12.3734155,16.3097113 12.4093521,16.3038169 C12.450993,16.2967817 12.4943451,16.2933592 12.5382676,16.2933592 C12.9782535,16.2933592 13.4127254,16.6310493 13.4682465,17.0158944 C13.5233873,17.4015 13.7563099,17.5838451 14.0263099,17.7950915 L14.0430423,17.8080211 C14.1681549,17.9059437 14.2915563,18.0057676 14.4151479,18.1057817 C14.6807746,18.3206408 14.9551479,18.5429155 15.2395986,18.7383803 C15.3787817,18.8342113 15.5820423,18.8939155 15.7695211,18.8939155 C15.7820704,18.8939155 15.7948099,18.8933451 15.8073592,18.8927746 C16.1910634,18.8752817 16.3367113,18.5495704 16.3893803,18.3571479 C16.4610634,18.0953239 16.3663732,17.8606901 16.0992254,17.640507 C15.7394789,17.3427465 15.3666127,17.0485986 15.0057254,16.7641479 C14.864831,16.6532958 14.7241268,16.5424437 14.5841831,16.4310211 L14.1354507,16.075838 C13.6678944,15.7056338 13.1839859,15.3223099 12.7135775,14.9393662 C12.6599577,14.8954437 12.6415141,14.8212887 12.6236408,14.7496056 C12.6166056,14.7205141 12.6095704,14.6918028 12.5998732,14.6659437 L12.580669,14.6130845 L12.6361901,14.605669 C12.6660423,14.6018662 12.6960845,14.5971127 12.7257465,14.5923592 C12.7955282,14.5811408 12.8675915,14.5695423 12.9400352,14.5695423 L12.9575282,14.5697324 C13.0050634,14.5710634 13.0429014,14.608331 13.0759859,14.6408451 C13.0877746,14.6528239 13.0997535,14.6644225 13.1117324,14.6737394 L14.1025563,15.4540775 C15.1013662,16.2405 16.0999859,17.0269225 17.0987958,17.8141056 C17.2819014,17.9586127 17.4764155,18.0348592 17.6618028,18.0348592 C17.8629718,18.0348592 18.0428451,17.9453028 18.1816479,17.7758873 C18.3109437,17.6182606 18.3677958,17.4532183 18.3506831,17.2862746 C18.3301479,17.0900493 18.2054155,16.8943944 17.9896056,16.7196549 C17.7526901,16.527993 17.5087394,16.3369014 17.2725845,16.1520845 L16.3730282,15.4451408 C15.5626479,14.8077887 14.724507,14.1489507 13.9044296,13.4948662 C13.8451056,13.4477113 13.8186761,13.3691831 13.793007,13.293507 C13.7827394,13.2621338 13.7722817,13.2307606 13.7593521,13.2026197 L13.7306408,13.1406338 L13.7987113,13.1387324 C13.8338873,13.1379718 13.8692535,13.1355 13.9048099,13.132838 C13.9502535,13.1294155 13.995507,13.1263732 14.0403803,13.1263732 C14.0882958,13.1263732 14.1299366,13.1299859 14.1677746,13.1379718 C14.2328028,13.1514718 14.2833803,13.1999577 14.3326268,13.2469225 C14.3520211,13.2651761 14.3712254,13.2838099 14.3913803,13.2995915 L15.4141479,14.1071197 C16.6086127,15.0505986 17.8441479,16.0264014 19.0680845,16.9740634 C19.2028944,17.0784507 19.4299225,17.1457606 19.6459225,17.1457606 L19.6618944,17.1455704 C19.9370282,17.1413873 20.1469437,16.9592324 20.2380211,16.6456901 C20.3252958,16.3450775 20.2148239,16.0857254 19.8902535,15.8299859" id="Fill-4" fill="#FFFFFF"></path>
                            <path d="M22.9749085,13.6834859 C22.0814366,12.083831 21.3018592,10.6802113 20.5926338,9.39238732 C20.5283662,9.27621127 20.455162,9.22183099 20.361993,9.22183099 C20.3207324,9.22183099 20.2750986,9.23171831 20.2220493,9.25225352 C20.1387676,9.28438732 20.0549155,9.31557042 19.9712535,9.34675352 C19.7662817,9.42261972 19.5546549,9.50133803 19.3544366,9.59393662 C19.2319859,9.65078873 19.1137183,9.67835915 18.9935493,9.67835915 C18.8534155,9.67835915 18.7075775,9.63976056 18.5470986,9.56028169 C17.5444859,9.0626831 16.4758944,8.5361831 15.4092042,8.046 C15.3023451,7.99656338 15.1648732,7.96937324 15.0230282,7.96937324 C14.9317606,7.96937324 14.8437254,7.98116197 14.7674789,8.00283803 C13.9690775,8.23309859 13.1674437,8.50176761 12.3914789,8.76169014 L12.2804366,8.79895775 C12.1245211,8.85105634 11.9619507,8.93623944 11.8092676,9.04519014 C11.2953169,9.41254225 10.7752817,9.79054225 10.2725493,10.155993 C9.98239437,10.366669 9.69242958,10.5777254 9.40170423,10.787831 C9.11649296,10.9943239 8.96894366,11.2365634 8.98643662,11.4702465 C9.00392958,11.6997465 9.18190141,11.9125141 9.48707746,12.0693803 C9.59545775,12.1250915 9.72076056,12.1509507 9.85290845,12.178331 C9.91223239,12.1908803 9.97250704,12.2030493 10.0325915,12.2184507 C10.0909648,12.2019085 10.1499085,12.1868873 10.2090423,12.1718662 C10.3400493,12.137831 10.4763803,12.1032254 10.6007324,12.0516972 C10.9696056,11.8995845 11.3369577,11.7432887 11.7041197,11.586993 C12.1311761,11.4050282 12.5732535,11.2169789 13.0105775,11.0386268 C13.217831,10.9543944 13.3779296,10.8821408 13.5060845,10.8241479 C13.7371056,10.7197606 13.8641197,10.6625282 13.9825775,10.6625282 C14.1388732,10.6625282 14.2580915,10.7617817 14.5191549,10.9798732 C14.6208803,11.0646761 14.7475141,11.1702042 14.9072324,11.2962676 C16.446993,12.5084155 18.0040563,13.7511761 19.5099718,14.9528662 L20.2701549,15.5596056 C20.3791056,15.6463099 20.4711338,15.7039225 20.5677254,15.7039225 C20.6304718,15.7037324 20.6939789,15.6795845 20.7614789,15.6297676 C21.5454296,15.0523099 22.3179718,14.4923451 22.9028451,14.0690915 C23.0503944,13.9626127 23.0703592,13.8546127 22.9749085,13.6834859" id="Fill-5" fill="#FFFFFF"></path>
                            <path d="M13.0506972,16.9386972 C12.918169,16.7586338 12.7090141,16.6548169 12.474,16.6536761 C12.1538028,16.6536761 11.9087113,16.8244225 11.8018521,17.1218028 C11.5805282,17.7378592 11.4099718,18.2409718 11.2652746,18.7054859 C11.1456761,19.0891901 11.3293521,19.4464648 11.7119155,19.5746197 C11.7910141,19.6012394 11.8723944,19.6147394 11.9533944,19.6147394 C12.2511549,19.6147394 12.5008099,19.4401901 12.6044366,19.159162 C12.8200563,18.5754296 12.999169,18.0475986 13.1518521,17.546007 C13.2159296,17.3338099 13.1792324,17.1122958 13.0506972,16.9386972" id="Fill-6" fill="#FFFFFF"></path>
                            <path d="M11.053838,15.7763662 C10.9762606,15.7527887 10.8983028,15.741 10.8218662,15.741 C10.5242958,15.741 10.2814859,15.9176408 10.1727254,16.2138803 C10.0244155,16.6165986 9.88561268,17.0307254 9.7511831,17.4313521 L9.639,17.7652394 C9.61960563,17.8224718 9.60895775,17.8831268 9.60192254,17.9232465 C9.59926056,17.9363662 9.59735915,17.9473944 9.59659859,17.9473944 L9.59659859,17.9472042 C9.59926056,18.3350915 9.8135493,18.6100352 10.1693028,18.6830493 C10.2253944,18.6944577 10.2814859,18.700162 10.3360563,18.700162 C10.6241197,18.700162 10.856662,18.5419648 10.9572465,18.2767183 C11.1709648,17.713331 11.3595845,17.1607817 11.5185423,16.635993 C11.6335775,16.2545704 11.4383028,15.8931127 11.053838,15.7763662" id="Fill-7" fill="#FFFFFF"></path>
                            <path d="M9.58328873,15.6428873 C9.45361268,15.4761338 9.24978169,15.3799225 9.02427465,15.3789718 C8.69419014,15.3806831 8.47020423,15.5274718 8.35916197,15.8143944 C8.23043662,16.1467606 8.11483099,16.4846408 8.01500704,16.8185282 C7.90396479,17.1896831 8.08041549,17.5429648 8.44434507,17.6779648 C8.52591549,17.7081972 8.61147887,17.7237887 8.69837324,17.7237887 C8.98054225,17.7237887 9.23076761,17.560838 9.33553521,17.3089014 C9.49867606,16.9187324 9.6171338,16.5715352 9.69832394,16.2477254 C9.75403521,16.0254507 9.71315493,15.8104014 9.58328873,15.6428873" id="Fill-8" fill="#FFFFFF"></path>
                            <path d="M7.6503169,15.2342746 L7.641,15.2264789 C7.49725352,15.1123944 7.32308451,15.0494577 7.15005634,15.0494577 C6.93215493,15.0494577 6.73821127,15.1490915 6.61785211,15.3225 C6.31191549,15.7645775 6.20676761,16.3553451 6.59864789,16.6291479 C6.69447887,16.6964577 6.80761268,16.74 6.8901338,16.7719437 C6.91542254,16.7816408 6.93728873,16.7901972 6.95478169,16.7978028 C7.35179577,16.7903873 7.58167606,16.6635634 7.69899296,16.3874789 C7.85719014,16.0165141 8.00607042,15.6660845 7.72827465,15.3057676 C7.70830986,15.2799085 7.67997887,15.257662 7.6503169,15.2342746" id="Fill-9" fill="#FFFFFF"></path>
                            <path d="M13.6359507,18.0785915 C13.5680704,18.0247817 13.4982887,17.9694507 13.4269859,17.9116479 L13.4064507,17.9654577 C13.3813521,18.0302958 13.3611972,18.0823944 13.3425634,18.1348732 L13.269169,18.3434577 C13.1706761,18.6220141 13.0689507,18.9100775 12.9750211,19.1954789 C12.9552465,19.2567042 12.9582887,19.3378944 12.9757817,19.3559577 C13.1843662,19.576331 13.4132958,19.6928873 13.6370915,19.6928873 C13.7827394,19.6928873 13.9245845,19.6426901 14.0586338,19.544007 C14.2339437,19.414331 14.3387113,19.2399718 14.353162,19.0528732 C14.3683732,18.8591197 14.2858521,18.6608028 14.1221408,18.4948099 C13.9768732,18.347831 13.8112606,18.2170141 13.6359507,18.0785915" id="Fill-10" fill="#FFFFFF"></path>
                        </g>
                    </g>
                </g>
            </g>
        </g>
    </g>
</svg>