<?xml version="1.0" encoding="UTF-8"?>
<svg width="27px" height="27px" viewBox="0 0 27 27" version="1.1" xmlns="http://www.w3.org/2000/svg" xmlns:xlink="http://www.w3.org/1999/xlink">
    <!-- Generator: sketchtool 41.1 (35376) - http://www.bohemiancoding.com/sketch -->
    <title>82FA93A1-BF1E-4C38-BF92-F2AD353A6665</title>
    <desc>Created with sketchtool.</desc>
    <defs>
        <rect id="path-1" x="224" y="169" width="961" height="940"></rect>
        <filter x="-50%" y="-50%" width="200%" height="200%" filterUnits="objectBoundingBox" id="filter-2">
            <feOffset dx="0" dy="2" in="SourceAlpha" result="shadowOffsetOuter1"></feOffset>
            <feGaussianBlur stdDeviation="1" in="shadowOffsetOuter1" result="shadowBlurOuter1"></feGaussianBlur>
            <feComposite in="shadowBlurOuter1" in2="SourceAlpha" operator="out" result="shadowBlurOuter1"></feComposite>
            <feColorMatrix values="0 0 0 0 0   0 0 0 0 0   0 0 0 0 0  0 0 0 0.12 0" type="matrix" in="shadowBlurOuter1"></feColorMatrix>
        </filter>
        <mask id="mask-3" maskContentUnits="userSpaceOnUse" maskUnits="objectBoundingBox" x="0" y="0" width="961" height="940" fill="white">
            <use xlink:href="#path-1"></use>
        </mask>
        <rect id="path-4" x="0" y="0" width="195" height="43" rx="4"></rect>
        <filter x="-50%" y="-50%" width="200%" height="200%" filterUnits="objectBoundingBox" id="filter-5">
            <feGaussianBlur stdDeviation="1" in="SourceAlpha" result="shadowBlurInner1"></feGaussianBlur>
            <feOffset dx="0" dy="-1" in="shadowBlurInner1" result="shadowOffsetInner1"></feOffset>
            <feComposite in="shadowOffsetInner1" in2="SourceAlpha" operator="arithmetic" k2="-1" k3="1" result="shadowInnerInner1"></feComposite>
            <feColorMatrix values="0 0 0 0 0   0 0 0 0 0   0 0 0 0 0  0 0 0 0.2 0" type="matrix" in="shadowInnerInner1"></feColorMatrix>
        </filter>
        <mask id="mask-6" maskContentUnits="userSpaceOnUse" maskUnits="objectBoundingBox" x="0" y="0" width="195" height="43" fill="white">
            <use xlink:href="#path-4"></use>
        </mask>
    </defs>
    <g id="Web" stroke="none" stroke-width="1" fill="none" fill-rule="evenodd">
        <g id="Participant-Detail-Level-Copy" transform="translate(-974.000000, -222.000000)">
            <g id="Rectangle-5">
                <use fill="black" fill-opacity="1" filter="url(#filter-2)" xlink:href="#path-1"></use>
                <use stroke="#DDDDDD" mask="url(#mask-3)" stroke-width="2" fill="#FFFFFF" fill-rule="evenodd" xlink:href="#path-1"></use>
            </g>
            <g id="tabs" transform="translate(224.000000, 214.000000)" opacity="0.5">
                <g id="Group-7" transform="translate(740.000000, 0.000000)">
                    <g id="Rectangle-151">
                        <use fill="#FFFFFF" fill-rule="evenodd" xlink:href="#path-4"></use>
                        <use fill="black" fill-opacity="1" filter="url(#filter-5)" xlink:href="#path-4"></use>
                        <use stroke="#CCCCCC" mask="url(#mask-6)" stroke-width="2" xlink:href="#path-4"></use>
                    </g>
                    <g id="Oval-173-Copy-+-UNHCR-100-Copy-Copy" transform="translate(10.000000, 8.000000)">
                        <g id="Circles_Residential-project">
                            <path d="M26.9823169,13.4923944 C26.9823169,20.9343169 20.9495282,26.9669155 13.5076056,26.9669155 C6.06587324,26.9669155 0.033084507,20.9343169 0.033084507,13.4923944 C0.033084507,6.05047183 6.06587324,0.0178732394 13.5076056,0.0178732394 C20.9495282,0.0178732394 26.9823169,6.05047183 26.9823169,13.4923944" id="Fill-1" fill="#882581"></path>
                            <path d="M10.9604789,15.0256901 L13.1510915,15.0256901 C13.2716408,15.0256901 13.3695634,14.9298592 13.3695634,14.8114014 L13.3695634,13.7458521 C13.3695634,13.6277746 13.2716408,13.5315634 13.1510915,13.5315634 L10.9604789,13.5315634 C10.8399296,13.5315634 10.742007,13.6277746 10.742007,13.7458521 L10.742007,14.8114014 C10.742007,14.9298592 10.8399296,15.0256901 10.9604789,15.0256901" id="Fill-2" fill="#FFFFFF"></path>
                            <path d="M13.8930211,15.0256901 L16.0836338,15.0256901 C16.2043732,15.0256901 16.3019155,14.9298592 16.3019155,14.8114014 L16.3021056,13.7458521 C16.3021056,13.6277746 16.2043732,13.5315634 16.0836338,13.5315634 L13.8930211,13.5315634 C13.7724718,13.5315634 13.6749296,13.6277746 13.6749296,13.7458521 L13.6749296,14.8114014 C13.6749296,14.9298592 13.7724718,15.0256901 13.8930211,15.0256901" id="Fill-3" fill="#FFFFFF"></path>
                            <path d="M10.9604789,18.6142183 L13.1510915,18.6142183 C13.2716408,18.6142183 13.3695634,18.5181972 13.3695634,18.3999296 L13.3695634,17.3343803 C13.3695634,17.2161127 13.2716408,17.1199014 13.1510915,17.1199014 L10.9604789,17.1199014 C10.8399296,17.1199014 10.742007,17.2161127 10.742007,17.3343803 L10.742007,18.3999296 C10.742007,18.5181972 10.8399296,18.6142183 10.9604789,18.6142183" id="Fill-4" fill="#FFFFFF"></path>
                            <path d="M13.6749296,17.3343803 L13.6749296,18.3999296 C13.6749296,18.5181972 13.7724718,18.6142183 13.8930211,18.6142183 L16.0836338,18.6142183 C16.2043732,18.6142183 16.3019155,18.5181972 16.3019155,18.3999296 L16.3021056,17.3343803 C16.3021056,17.2161127 16.2043732,17.1199014 16.0836338,17.1199014 L13.8930211,17.1199014 C13.7724718,17.1199014 13.6749296,17.2161127 13.6749296,17.3343803" id="Fill-5" fill="#FFFFFF"></path>
                            <path d="M11.9248732,16.6070915 L11.9248732,15.5413521 C11.9248732,15.4232746 11.8269507,15.3270634 11.7064014,15.3270634 L9.51578873,15.3270634 C9.39542958,15.3270634 9.2973169,15.4232746 9.2973169,15.5413521 L9.2973169,16.6070915 C9.2973169,16.7255493 9.39542958,16.8215704 9.51578873,16.8215704 L11.7064014,16.8215704 C11.8269507,16.8215704 11.9248732,16.7253592 11.9248732,16.6070915" id="Fill-6" fill="#FFFFFF"></path>
                            <path d="M14.6391338,15.3270634 L12.448331,15.3270634 C12.3277817,15.3270634 12.2302394,15.4232746 12.2302394,15.5413521 L12.2302394,16.6070915 C12.2302394,16.7253592 12.3277817,16.8215704 12.448331,16.8215704 L14.6391338,16.8215704 C14.7596831,16.8215704 14.8572254,16.7253592 14.8572254,16.6070915 L14.8574155,16.6070915 L14.8574155,15.5413521 C14.8574155,15.4232746 14.7596831,15.3270634 14.6391338,15.3270634" id="Fill-7" fill="#FFFFFF"></path>
                            <path d="M17.5684437,15.3270634 L15.377831,15.3270634 C15.2572817,15.3270634 15.1597394,15.4232746 15.1597394,15.5413521 L15.1597394,16.6070915 C15.1597394,16.7253592 15.2572817,16.8215704 15.377831,16.8215704 L17.5684437,16.8215704 C17.6891831,16.8215704 17.7869155,16.7253592 17.7869155,16.6070915 L17.7869155,15.5413521 C17.7869155,15.4232746 17.6891831,15.3270634 17.5684437,15.3270634" id="Fill-8" fill="#FFFFFF"></path>
                            <path d="M11.7064014,18.9123592 L9.51578873,18.9123592 C9.39542958,18.9123592 9.2973169,19.0081901 9.2973169,19.1266479 L9.2973169,20.192007 C9.2973169,20.3102746 9.39542958,20.4061056 9.51578873,20.4061056 L11.7064014,20.4061056 C11.8269507,20.4061056 11.9248732,20.3102746 11.9248732,20.192007 L11.9248732,19.1266479 C11.9248732,19.0081901 11.8269507,18.9123592 11.7064014,18.9123592" id="Fill-9" fill="#FFFFFF"></path>
                            <path d="M14.6391338,18.9123592 L12.448331,18.9123592 C12.3277817,18.9123592 12.2302394,19.0081901 12.2302394,19.1266479 L12.2302394,20.192007 C12.2302394,20.3102746 12.3277817,20.4061056 12.448331,20.4061056 L14.6391338,20.4061056 C14.7596831,20.4061056 14.8572254,20.3102746 14.8572254,20.192007 L14.8574155,20.192007 L14.8574155,19.1266479 C14.8574155,19.0081901 14.7596831,18.9123592 14.6391338,18.9123592" id="Fill-10" fill="#FFFFFF"></path>
                            <path d="M17.5684437,18.9123592 L15.377831,18.9123592 C15.2572817,18.9123592 15.1597394,19.0081901 15.1597394,19.1266479 L15.1597394,20.192007 C15.1597394,20.3102746 15.2572817,20.4061056 15.377831,20.4061056 L17.5684437,20.4061056 C17.6891831,20.4061056 17.7869155,20.3102746 17.7869155,20.192007 L17.7869155,19.1266479 C17.7869155,19.0081901 17.6891831,18.9123592 17.5684437,18.9123592" id="Fill-11" fill="#FFFFFF"></path>
                            <path d="M21.0603803,9.07523239 C21.3604225,9.07523239 21.6142606,8.97597887 21.8215141,8.77937324 C22.0278169,8.5818169 22.1310634,8.33254225 22.1310634,8.03192958 C22.1310634,7.73207746 22.0278169,7.47348592 21.8215141,7.25729577 C21.6142606,7.04129577 21.3604225,6.93329577 21.0603803,6.93329577 C20.7597676,6.93329577 20.5066901,7.03654225 20.2996268,7.24303521 C20.0931338,7.45009859 19.9893169,7.70393662 19.9893169,8.00378873 C19.9893169,8.30459155 20.0931338,8.55842958 20.2996268,8.76492254 C20.5066901,8.97198592 20.7597676,9.07523239 21.0603803,9.07523239" id="Fill-12" fill="#FFFFFF"></path>
                            <path d="M23.2021268,9.6804507 C22.9199577,9.44600704 22.4035352,9.32830986 21.6522887,9.32830986 L19.7079085,9.32830986 C19.5014155,9.32830986 19.3371338,9.36139437 19.2146831,9.42737324 C19.0928028,9.49335211 18.9655986,9.60059155 18.8340211,9.75137324 L16.7770775,12.2308099 C16.6835282,12.3631479 16.635993,12.4943451 16.635993,12.6257324 C16.635993,12.7377254 16.6835282,12.850669 16.7770775,12.9636127 C16.8711972,13.0765563 17.0214085,13.132838 17.2277113,13.132838 C17.3404648,13.132838 17.4444718,13.0860634 17.5380211,12.9917535 L19.6232958,10.4841761 L19.6232958,19.416993 C19.6232958,19.680338 19.6603732,19.8915845 19.7333873,20.0513028 C19.8069718,20.210831 19.9630775,20.2906901 20.2018944,20.2906901 C20.5142958,20.2906901 20.7027254,20.210831 20.7666127,20.0513028 C20.8306901,19.8915845 20.8630141,19.6611338 20.8630141,19.3605211 L20.8630141,14.6545352 L21.1451831,14.6545352 L21.1451831,19.3605211 C21.1451831,19.6611338 21.1773169,19.8915845 21.2436761,20.0513028 C21.3096549,20.210831 21.4731761,20.2906901 21.7369014,20.2906901 C21.9996761,20.2906901 22.1736549,20.210831 22.2582676,20.0513028 C22.3428803,19.8915845 22.3849014,19.680338 22.3849014,19.416993 L22.3849014,11.1040352 L22.6952113,11.1040352 L22.6952113,13.9219225 C22.6952113,14.1468592 22.7233521,14.3259718 22.7792535,14.457169 C22.8355352,14.5887465 22.9669225,14.6545352 23.1739859,14.6545352 C23.3618451,14.6545352 23.4835352,14.5838028 23.540007,14.4434789 C23.5964789,14.3023944 23.6246197,14.1192887 23.6246197,13.8935915 L23.6246197,11.1040352 C23.6246197,10.3898662 23.4835352,9.91584507 23.2021268,9.6804507" id="Fill-13" fill="#FFFFFF"></path>
                            <path d="M7.77390845,10.8891761 L9.48175352,12.9666549 C9.53879577,13.0430915 9.61865493,13.1048873 9.72361268,13.1514718 C9.82780986,13.1995775 9.94588732,13.1946338 10.0793662,13.1377817 C10.2307183,13.0617254 10.311338,12.9480211 10.3212254,12.7957183 C10.330162,12.6443662 10.2788239,12.5017606 10.1647394,12.3690423 C10.1265211,12.3317746 10.0126268,12.1941127 9.82305634,11.9564366 C9.63329577,11.7195211 9.43383803,11.4681549 9.22544366,11.2025282 C8.97864085,10.8986831 8.70350704,10.5666972 8.39985211,10.206 C8.19069718,9.94056338 7.99694366,9.73635211 7.81688028,9.59393662 C7.63624648,9.45209155 7.45066901,9.38059859 7.26166901,9.38059859 L5.75328169,9.38059859 C5.2598662,9.38059859 4.90905634,9.51388732 4.69990141,9.77951408 C4.49150704,10.0447606 4.33007746,10.3769366 4.2161831,10.7750915 L3.4476338,13.4218521 C3.41017606,13.5359366 3.39059155,13.6213099 3.39059155,13.678162 C3.39059155,13.7920563 3.42405634,13.8915 3.49079577,13.9770634 C3.55753521,14.0624366 3.65678873,14.1055986 3.78950704,14.1055986 C4.01672535,14.1055986 4.17872535,13.9818169 4.27322535,13.7352042 L5.15566901,10.8891761 L5.38288732,10.8891761 L3.90359155,16.0121408 L5.24104225,16.0121408 L5.24104225,19.7406127 C5.24104225,20.1387676 5.40247183,20.3384155 5.72476056,20.3384155 C5.87687324,20.3384155 5.99989437,20.2910704 6.09439437,20.1958099 C6.18965493,20.1013099 6.23680986,19.9491972 6.23680986,19.7406127 L6.23680986,16.0121408 L6.5786831,16.0121408 L6.5786831,19.7406127 C6.5786831,20.1387676 6.73497887,20.3384155 7.04833099,20.3384155 C7.36111268,20.3384155 7.51740845,20.1387676 7.51740845,19.7406127 L7.51740845,16.0121408 L8.85580986,16.0121408 L7.51740845,10.8891761 L7.77390845,10.8891761" id="Fill-14" fill="#FFFFFF"></path>
                            <path d="M6.46478873,9.12485915 C6.74201408,9.12485915 6.98653521,9.01571831 7.19911268,8.79705634 C7.41111972,8.57934507 7.51740845,8.31809155 7.51740845,8.01443662 C7.51740845,7.71173239 7.41111972,7.45504225 7.19911268,7.24607746 C6.98653521,7.0376831 6.74201408,6.93329577 6.46478873,6.93329577 C6.15352817,6.93329577 5.886,7.0376831 5.66220423,7.24607746 C5.43840845,7.45504225 5.32660563,7.71173239 5.32660563,8.01443662 C5.32660563,8.31809155 5.43840845,8.57934507 5.66220423,8.79705634 C5.886,9.01571831 6.15352817,9.12485915 6.46478873,9.12485915" id="Fill-15" fill="#FFFFFF"></path>
                        </g>
                    </g>
                </g>
            </g>
        </g>
    </g>
</svg>