<?xml version="1.0" encoding="UTF-8"?>
<svg width="27px" height="27px" viewBox="0 0 27 27" version="1.1" xmlns="http://www.w3.org/2000/svg" xmlns:xlink="http://www.w3.org/1999/xlink">
    <!-- Generator: sketchtool 41.1 (35376) - http://www.bohemiancoding.com/sketch -->
    <title>F98EC633-2D98-4F52-940B-466A8CF52CCE</title>
    <desc>Created with sketchtool.</desc>
    <defs></defs>
    <g id="Web" stroke="none" stroke-width="1" fill="none" fill-rule="evenodd" opacity="0.5">
        <g id="Participant-Detail-Level-Copy" transform="translate(-244.000000, -222.000000)">
            <g id="tabs" transform="translate(224.000000, 214.000000)">
                <g id="Group-7" transform="translate(10.000000, 0.000000)">
                    <g id="Oval-173-+-Dancing-100" transform="translate(10.000000, 8.000000)">
                        <g id="Circles_Skills">
                            <path d="M26.9821268,13.4923944 C26.9821268,20.9341268 20.949338,26.9667254 13.5076056,26.9667254 C6.0656831,26.9667254 0.033084507,20.9341268 0.033084507,13.4923944 C0.033084507,6.05047183 6.0656831,0.0178732394 13.5076056,0.0178732394 C20.949338,0.0178732394 26.9821268,6.05047183 26.9821268,13.4923944" id="Fill-1" fill="#009EDC"></path>
                            <path d="M13.4406761,10.1786197 C13.9165986,10.1786197 14.3250211,10.0152887 14.6684155,9.68748592 C15.0091479,9.3606338 15.1814155,8.95867606 15.1814155,8.48275352 C15.1814155,8.00797183 15.0091479,7.59840845 14.6684155,7.25634507 C14.3250211,6.91428169 13.9165986,6.74334507 13.4406761,6.74334507 C12.9657042,6.74334507 12.556331,6.91428169 12.2140775,7.25634507 C11.8723944,7.59840845 11.7010775,8.00797183 11.7010775,8.48275352 C11.7010775,8.95867606 11.8798099,9.3606338 12.2361338,9.68748592 C12.5932183,10.0152887 12.9953662,10.1786197 13.4406761,10.1786197" id="Fill-2" fill="#FFFFFF"></path>
                            <path d="M8.44852817,9.69357042 C9.0221831,9.69357042 9.48707746,9.22848592 9.48707746,8.65502113 C9.48707746,8.0813662 9.0221831,7.61647183 8.44852817,7.61647183 C7.87487324,7.61647183 7.40997887,8.0813662 7.40997887,8.65502113 C7.40997887,9.22848592 7.87487324,9.69357042 8.44852817,9.69357042" id="Fill-3" fill="#FFFFFF"></path>
                            <path d="M18.3179789,9.43060563 C18.8914437,9.43060563 19.3565282,8.96552113 19.3565282,8.39205634 C19.3565282,7.81840141 18.8914437,7.35350704 18.3179789,7.35350704 C17.7443239,7.35350704 17.2792394,7.81840141 17.2792394,8.39205634 C17.2792394,8.96552113 17.7443239,9.43060563 18.3179789,9.43060563" id="Fill-4" fill="#FFFFFF"></path>
                            <path d="M19.7794014,13.2927465 C19.2146831,13.2927465 18.7562535,13.7439507 18.7421831,14.3054366 C18.4993732,14.0012113 18.2497183,13.6861479 17.9880845,13.3522606 C17.6091338,12.8877465 16.6472113,11.7685775 16.1840282,11.217169 L16.1849789,11.2181197 C15.8680141,10.8239577 15.3179366,10.6264014 14.5330352,10.6264014 L13.5076056,10.6252606 L12.4819859,10.6264014 C11.6972746,10.6264014 11.147007,10.8239577 10.8302324,11.2181197 L10.8311831,11.217169 C10.3678099,11.7685775 9.40588732,12.8877465 9.0273169,13.3522606 C8.70692958,13.7606831 8.40137324,14.1468592 8.10874648,14.5115493 C7.81821127,14.8762394 7.64309155,15.0878662 7.58452817,15.1454789 C7.40921831,15.3500704 7.32916901,15.5689225 7.34285915,15.8016549 C7.35902113,16.0357183 7.48204225,16.210838 7.71572535,16.3266338 C7.91974648,16.4142887 8.10228169,16.4217042 8.26257042,16.3486901 C8.42285915,16.2766268 8.54683099,16.1815563 8.63429577,16.0644296 L11.2369437,12.9493521 L11.7010775,12.9440282 L9.64907746,21.0193099 L11.7010775,21.0193099 L11.7010775,26.8427535 C12.2114155,26.9110141 12.7303099,26.9507535 13.257,26.9604507 C13.258331,26.9279366 13.2619437,26.8984648 13.2619437,26.8642394 L13.2619437,21.0193099 L13.7530775,21.0193099 L13.7530775,26.8642394 C13.7530775,26.8984648 13.7566901,26.9279366 13.7580211,26.9604507 C14.2847113,26.9507535 14.8037958,26.9110141 15.3141338,26.8427535 L15.3141338,21.0193099 L17.3659437,21.0193099 L15.3141338,12.9440282 L15.7780775,12.9493521 L18.3811056,16.0644296 C18.4683803,16.1815563 18.5923521,16.2766268 18.7526408,16.3486901 C18.9129296,16.4217042 19.0954648,16.4142887 19.2994859,16.3266338 C19.533169,16.210838 19.656,16.0357183 19.672162,15.8016549 C19.681669,15.643838 19.6442113,15.4930563 19.5668239,15.348169 C19.6356549,15.3624296 19.7065775,15.3700352 19.7794014,15.3700352 C20.3530563,15.3700352 20.8179507,14.9049507 20.8179507,14.3314859 C20.8179507,13.757831 20.3530563,13.2927465 19.7794014,13.2927465" id="Fill-5" fill="#FFFFFF"></path>
                            <path d="M13.3927606,5.09140141 C13.9664155,5.09140141 14.4315,4.62650704 14.4315,4.05304225 C14.4315,3.47938732 13.9664155,3.01449296 13.3927606,3.01449296 C12.8194859,3.01449296 12.3544014,3.47938732 12.3544014,4.05304225 C12.3544014,4.62650704 12.8194859,5.09140141 13.3927606,5.09140141" id="Fill-6" fill="#FFFFFF"></path>
                        </g>
                    </g>
                </g>
            </g>
        </g>
    </g>
</svg>